#tb 0: 1/25
#media_type 0: video
#codec_id 0: rawvideo
#dimensions 0: 1920x1080
#sar 0: 0/1
0,          0,          0,        1,  8294400, 0x96d051a1
0,          1,          1,        1,  8294400, 0xf3c2974e
0,          2,          2,        1,  8294400, 0xb18f3ed0
0,          3,          3,        1,  8294400, 0xb5ba9998
0,          4,          4,        1,  8294400, 0x96327a34
0,          5,          5,        1,  8294400, 0xe24d7b61
0,          6,          6,        1,  8294400, 0xc45d5a16
0,          7,          7,        1,  8294400, 0x13b4a537
0,          8,          8,        1,  8294400, 0xa81dae90
0,          9,          9,        1,  8294400, 0x2820bbe9
